<?xml version="1.0" encoding="utf-8"?>
<!-- Generator: Adobe Illustrator 16.0.0, SVG Export Plug-In . SVG Version: 6.00 Build 0)  -->
<!DOCTYPE svg PUBLIC "-//W3C//DTD SVG 1.1//EN" "http://www.w3.org/Graphics/SVG/1.1/DTD/svg11.dtd">
<svg version="1.1" id="Layer_1" xmlns="http://www.w3.org/2000/svg" xmlns:xlink="http://www.w3.org/1999/xlink" x="0px" y="0px"
	 width="76.5px" height="26.5px" viewBox="0 0 76.5 26.5" enable-background="new 0 0 76.5 26.5" xml:space="preserve">
<g>
	<path d="M13.219,10.287h1.93v11.391c0,0.453,0.242,0.68,0.725,0.68h0.669v1.875h-0.861c-0.704,0-1.284-0.182-1.74-0.543
		c-0.481-0.369-0.722-0.988-0.722-1.857L13.219,10.287L13.219,10.287z"/>
	<path d="M23.319,23.352h-0.037c-0.179,0.338-0.457,0.586-0.833,0.746c-0.37,0.166-0.883,0.25-1.537,0.25
		c-1.074-0.014-1.901-0.307-2.481-0.881c-0.611-0.561-0.917-1.277-0.917-2.15c0-0.836,0.266-1.527,0.796-2.075
		c0.531-0.562,1.309-0.849,2.333-0.861h2.676v-1.047c0.013-0.878-0.645-1.304-1.973-1.278c-0.482,0-0.862,0.051-1.14,0.153
		c-0.29,0.122-0.519,0.327-0.685,0.614l-1.519-1.196c0.735-0.989,1.818-1.472,3.249-1.446c1.209-0.013,2.175,0.223,2.897,0.709
		c0.722,0.496,1.089,1.352,1.101,2.563v6.781h-1.93V23.352z M23.319,20.023h-2.32c-1.127,0.024-1.683,0.424-1.67,1.195
		c0,0.338,0.145,0.625,0.436,0.861c0.278,0.262,0.739,0.393,1.382,0.393c0.81,0.014,1.383-0.086,1.717-0.297
		c0.303-0.211,0.455-0.689,0.455-1.436V20.023z"/>
	<path d="M26.937,10.374h1.93v5.069c0.351-0.351,0.737-0.637,1.157-0.861c0.389-0.21,0.83-0.316,1.324-0.316
		c1.179,0.032,2.04,0.467,2.583,1.301c0.264,0.313,0.446,0.725,0.545,1.234c0.092,0.504,0.139,1.352,0.139,2.545
		c0,1.172-0.047,2.014-0.139,2.524c-0.099,0.536-0.281,0.96-0.546,1.272c-0.265,0.383-0.614,0.688-1.046,0.918
		c-0.426,0.235-0.938,0.359-1.536,0.373c-1.012-0.027-1.839-0.41-2.481-1.152v1.037h-1.93V10.374z M30.767,16.255
		c-0.433,0-0.775,0.093-1.029,0.278c-0.266,0.186-0.46,0.429-0.583,0.73c-0.118,0.299-0.195,0.627-0.232,0.979
		c-0.037,0.352-0.055,0.72-0.055,1.104c0,0.352,0.018,0.709,0.055,1.074c0.037,0.371,0.114,0.707,0.232,1.008
		c0.123,0.301,0.318,0.545,0.583,0.729c0.253,0.192,0.596,0.288,1.029,0.288c0.458,0,0.819-0.09,1.084-0.27
		c0.266-0.186,0.454-0.422,0.566-0.71c0.123-0.301,0.207-0.64,0.25-1.017c0.012-0.358,0.018-0.727,0.018-1.104
		c0-0.396-0.006-0.783-0.018-1.162c-0.043-0.352-0.127-0.678-0.25-0.979c-0.112-0.301-0.3-0.537-0.566-0.71
		C31.585,16.335,31.225,16.255,30.767,16.255z"/>
	<path fill="#EEAE32" d="M36.27,20.249c0.013-1.347,0.562-2.392,1.647-3.14c-0.414-0.363-0.739-0.78-0.975-1.252
		c-0.274-0.44-0.412-0.963-0.412-1.569c0.012-1.161,0.393-2.121,1.141-2.88c0.705-0.753,1.614-1.136,2.728-1.148
		c1.131,0.013,2.056,0.395,2.772,1.148c0.724,0.759,1.091,1.718,1.104,2.879c0,0.605-0.125,1.128-0.373,1.568
		c-0.262,0.472-0.6,0.89-1.014,1.252c1.084,0.746,1.633,1.793,1.646,3.138c-0.012,1.256-0.412,2.261-1.199,3.013
		c-0.8,0.771-1.779,1.164-2.938,1.176c-1.153-0.013-2.118-0.404-2.893-1.175C36.694,22.506,36.282,21.503,36.27,20.249z
		 M38.202,20.23c0.012,0.639,0.237,1.162,0.673,1.572c0.418,0.428,0.925,0.643,1.523,0.643c0.617,0,1.135-0.215,1.552-0.643
		c0.423-0.408,0.641-0.933,0.653-1.572c-0.012-0.652-0.229-1.184-0.653-1.592c-0.418-0.404-0.935-0.611-1.552-0.623
		c-0.598,0.012-1.105,0.221-1.523,0.623C38.439,19.047,38.214,19.578,38.202,20.23z M38.46,14.247
		c0.012,0.647,0.214,1.142,0.606,1.481c0.385,0.352,0.828,0.528,1.332,0.528c0.521,0,0.975-0.176,1.359-0.528
		c0.379-0.34,0.575-0.834,0.588-1.481c-0.013-0.666-0.209-1.17-0.588-1.51c-0.385-0.327-0.839-0.49-1.359-0.49
		c-0.504,0-0.948,0.163-1.332,0.49C38.675,13.078,38.472,13.581,38.46,14.247z"/>
	<path fill="#EEAE32" d="M45.971,14.26c0.012-1.286,0.41-2.276,1.195-2.97c0.734-0.687,1.613-1.031,2.633-1.031
		c1.051,0,1.944,0.344,2.68,1.033c0.748,0.695,1.133,1.687,1.16,2.974v6.15c-0.027,1.281-0.412,2.27-1.16,2.965
		c-0.735,0.688-1.629,1.039-2.68,1.053c-1.021-0.014-1.898-0.363-2.633-1.051c-0.785-0.693-1.184-1.681-1.195-2.961V14.26z
		 M51.708,14.385c-0.038-1.399-0.673-2.111-1.909-2.137c-1.24,0.026-1.875,0.738-1.898,2.137v5.924
		c0.023,1.412,0.658,2.123,1.898,2.137c1.236-0.014,1.871-0.725,1.909-2.137V14.385z"/>
	<path fill="#EEAE32" d="M54.887,20.369l4.512-9.996h2.152l-4.561,9.996h3.527v-4.016h1.93v4.016h1.082v1.873h-1.082v2.076h-1.93
		v-2.075l-5.631-0.001V20.369z"/>
	<polygon points="9.728,12.146 8.363,10.782 2.902,16.243 1.537,17.607 2.902,18.973 2.902,18.973 8.363,24.434 9.728,23.068 
		4.267,17.607 	"/>
	<polygon points="75.213,17.607 73.848,16.243 68.387,10.782 67.021,12.146 72.482,17.607 67.021,23.068 68.387,24.434 
		73.848,18.973 73.848,18.973 	"/>
	<g>
		<polygon fill="#EEAE32" points="48.596,22.215 53.118,12.304 50.966,12.304 46.491,22.215 		"/>
	</g>
</g>
<g>
	<path d="M14.796,5.984c0.212,0,0.4-0.065,0.562-0.197c0.162-0.132,0.243-0.292,0.243-0.484h0.577l0.006,0.02
		c0.011,0.304-0.125,0.574-0.405,0.811c-0.281,0.237-0.609,0.355-0.982,0.355c-0.513,0-0.904-0.167-1.176-0.501
		s-0.407-0.754-0.407-1.26V4.59c0-0.501,0.136-0.92,0.409-1.255s0.664-0.503,1.174-0.503c0.412,0,0.75,0.122,1.011,0.365
		c0.261,0.243,0.388,0.542,0.379,0.896l-0.007,0.02H15.6c0-0.215-0.076-0.398-0.228-0.549s-0.344-0.226-0.576-0.226
		c-0.337,0-0.577,0.121-0.722,0.362c-0.145,0.242-0.216,0.539-0.216,0.89v0.137c0,0.36,0.071,0.66,0.215,0.899
		C14.216,5.864,14.458,5.984,14.796,5.984z"/>
	<path d="M16.753,4.626c0-0.521,0.141-0.951,0.423-1.288c0.282-0.337,0.666-0.506,1.15-0.506c0.488,0,0.874,0.168,1.158,0.505
		c0.283,0.336,0.425,0.766,0.425,1.29v0.072c0,0.525-0.141,0.955-0.423,1.29c-0.282,0.335-0.667,0.501-1.153,0.501
		s-0.871-0.167-1.155-0.503c-0.283-0.335-0.425-0.765-0.425-1.288V4.626z M17.395,4.696c0,0.373,0.079,0.681,0.236,0.924
		c0.157,0.243,0.391,0.364,0.702,0.364c0.306,0,0.539-0.121,0.697-0.364c0.159-0.243,0.238-0.551,0.238-0.924V4.625
		c0-0.369-0.08-0.676-0.239-0.921c-0.16-0.245-0.394-0.367-0.702-0.367c-0.306,0-0.538,0.123-0.695,0.367
		c-0.158,0.245-0.236,0.552-0.236,0.921L17.395,4.696L17.395,4.696z"/>
	<path d="M20.548,4.724c0-0.567,0.121-1.024,0.363-1.371c0.242-0.347,0.582-0.521,1.018-0.521c0.206,0,0.389,0.038,0.549,0.114
		c0.159,0.076,0.295,0.187,0.409,0.332V1.34h0.642v5.081h-0.524L22.93,5.988c-0.115,0.165-0.256,0.29-0.423,0.375
		C22.34,6.447,22.146,6.49,21.924,6.49c-0.43,0-0.766-0.156-1.009-0.467S20.548,5.3,20.548,4.792V4.724z M21.189,4.792
		c0,0.356,0.073,0.641,0.218,0.855s0.371,0.321,0.677,0.321c0.191,0,0.352-0.043,0.482-0.13s0.237-0.208,0.319-0.365V3.828
		c-0.083-0.146-0.189-0.261-0.321-0.347c-0.131-0.085-0.29-0.128-0.474-0.128c-0.308,0-0.536,0.127-0.682,0.381
		s-0.22,0.584-0.22,0.99L21.189,4.792L21.189,4.792z"/>
	<path d="M25.948,6.489c-0.491,0-0.881-0.163-1.171-0.49s-0.435-0.75-0.435-1.271V4.584c0-0.501,0.149-0.919,0.448-1.252
		s0.652-0.5,1.061-0.5c0.475,0,0.834,0.143,1.078,0.43c0.244,0.287,0.365,0.669,0.365,1.146v0.4h-2.286l-0.01,0.017
		c0.006,0.337,0.092,0.615,0.257,0.833c0.165,0.217,0.396,0.326,0.694,0.326c0.217,0,0.407-0.031,0.571-0.093
		s0.306-0.147,0.425-0.255l0.25,0.417c-0.126,0.125-0.292,0.229-0.498,0.312C26.49,6.447,26.241,6.489,25.948,6.489z M25.85,3.337
		c-0.215,0-0.399,0.09-0.551,0.271c-0.152,0.181-0.245,0.407-0.28,0.68l0.006,0.017h1.625V4.219c0-0.251-0.067-0.461-0.202-0.63
		C26.314,3.421,26.115,3.337,25.85,3.337z"/>
	<path d="M29.413,5.144c0-0.265,0.077-0.497,0.229-0.695c0.153-0.199,0.382-0.397,0.686-0.598c-0.169-0.215-0.295-0.406-0.378-0.575
		c-0.083-0.168-0.124-0.341-0.124-0.52c0-0.367,0.106-0.649,0.317-0.848c0.212-0.199,0.503-0.298,0.875-0.298
		c0.343,0,0.622,0.099,0.837,0.296c0.215,0.198,0.323,0.436,0.323,0.713c0,0.213-0.057,0.397-0.171,0.552
		c-0.114,0.155-0.283,0.314-0.506,0.477l-0.355,0.26l1.107,1.332c0.089-0.141,0.159-0.297,0.208-0.469s0.075-0.353,0.075-0.544
		h0.573c0,0.287-0.042,0.552-0.127,0.795c-0.084,0.243-0.208,0.461-0.368,0.654l0.603,0.727L33.21,6.421h-0.746l-0.277-0.332
		c-0.174,0.13-0.366,0.229-0.577,0.298c-0.211,0.069-0.429,0.103-0.655,0.103c-0.471,0-0.846-0.125-1.125-0.375
		C29.551,5.865,29.413,5.541,29.413,5.144z M30.956,5.984c0.157,0,0.311-0.026,0.463-0.08c0.152-0.053,0.295-0.129,0.43-0.229
		l-1.176-1.414l-0.13,0.094c-0.197,0.147-0.328,0.288-0.392,0.422c-0.064,0.134-0.096,0.256-0.096,0.364
		c0,0.245,0.077,0.446,0.231,0.604C30.439,5.905,30.663,5.984,30.956,5.984z M30.468,2.75c0,0.115,0.029,0.235,0.088,0.36
		s0.146,0.261,0.264,0.409l0.45-0.31c0.124-0.083,0.208-0.172,0.252-0.269s0.066-0.204,0.066-0.321c0-0.132-0.052-0.25-0.158-0.352
		s-0.243-0.153-0.412-0.153c-0.176,0-0.312,0.062-0.407,0.184C30.516,2.422,30.468,2.572,30.468,2.75z"/>
	<path d="M35.337,4.724c0-0.567,0.121-1.024,0.363-1.371c0.242-0.347,0.582-0.521,1.018-0.521c0.206,0,0.389,0.038,0.549,0.114
		c0.159,0.076,0.295,0.187,0.409,0.332V1.34h0.642v5.081h-0.524l-0.075-0.433c-0.115,0.165-0.256,0.29-0.423,0.375
		c-0.167,0.084-0.361,0.127-0.583,0.127c-0.43,0-0.766-0.156-1.009-0.467c-0.243-0.311-0.367-0.723-0.367-1.231V4.724z
		 M35.979,4.792c0,0.356,0.073,0.641,0.218,0.855c0.145,0.214,0.371,0.321,0.677,0.321c0.191,0,0.352-0.043,0.482-0.13
		s0.237-0.208,0.319-0.365V3.828c-0.083-0.146-0.189-0.261-0.321-0.347c-0.131-0.085-0.29-0.128-0.474-0.128
		c-0.308,0-0.536,0.127-0.682,0.381c-0.146,0.254-0.22,0.584-0.22,0.99L35.979,4.792L35.979,4.792z"/>
	<path d="M40.736,6.489c-0.49,0-0.881-0.163-1.17-0.49c-0.291-0.327-0.436-0.75-0.436-1.271V4.584c0-0.501,0.148-0.919,0.448-1.252
		c0.299-0.333,0.651-0.5,1.062-0.5c0.475,0,0.834,0.143,1.077,0.43c0.244,0.287,0.365,0.669,0.365,1.146v0.4h-2.286l-0.01,0.017
		c0.006,0.337,0.092,0.615,0.257,0.833c0.165,0.217,0.396,0.326,0.694,0.326c0.217,0,0.406-0.031,0.57-0.093
		s0.307-0.147,0.426-0.255l0.25,0.417c-0.127,0.125-0.293,0.229-0.498,0.312C41.279,6.447,41.029,6.489,40.736,6.489z M40.639,3.337
		c-0.215,0-0.398,0.09-0.551,0.271c-0.152,0.181-0.245,0.407-0.279,0.68l0.006,0.017h1.625V4.219c0-0.251-0.067-0.461-0.203-0.63
		C41.104,3.421,40.904,3.337,40.639,3.337z"/>
	<path d="M44.85,5.483c0-0.141-0.054-0.257-0.16-0.349c-0.107-0.091-0.312-0.17-0.611-0.238c-0.428-0.093-0.75-0.219-0.965-0.378
		c-0.217-0.16-0.324-0.377-0.324-0.652c0-0.286,0.122-0.53,0.365-0.731c0.242-0.201,0.56-0.302,0.951-0.302
		c0.41,0,0.735,0.105,0.979,0.316c0.242,0.21,0.357,0.467,0.348,0.769l-0.007,0.02h-0.612c0-0.154-0.063-0.292-0.193-0.416
		c-0.129-0.123-0.301-0.184-0.514-0.184c-0.228,0-0.396,0.05-0.508,0.149c-0.111,0.1-0.166,0.221-0.166,0.362
		c0,0.139,0.049,0.249,0.146,0.329c0.098,0.081,0.296,0.152,0.596,0.215c0.445,0.095,0.776,0.225,0.993,0.389
		c0.217,0.164,0.326,0.384,0.326,0.659c0,0.313-0.126,0.566-0.38,0.759c-0.252,0.193-0.582,0.29-0.991,0.29
		c-0.449,0-0.804-0.114-1.062-0.342c-0.26-0.228-0.381-0.494-0.369-0.798l0.006-0.02h0.613c0.01,0.227,0.096,0.393,0.254,0.497
		c0.158,0.105,0.344,0.157,0.557,0.157c0.229,0,0.406-0.046,0.536-0.138C44.786,5.754,44.85,5.632,44.85,5.483z"/>
	<path d="M46.982,1.995h-0.642V1.34h0.642V1.995z M46.982,6.421h-0.642V2.897h0.642V6.421z"/>
	<path d="M47.83,4.724c0-0.567,0.124-1.024,0.371-1.371c0.246-0.347,0.59-0.521,1.025-0.521c0.225,0,0.42,0.045,0.59,0.135
		c0.17,0.09,0.312,0.22,0.424,0.389l0.078-0.459h0.511V6.44c0,0.452-0.132,0.798-0.394,1.041c-0.264,0.243-0.643,0.363-1.138,0.363
		c-0.169,0-0.353-0.023-0.549-0.07c-0.196-0.046-0.37-0.11-0.521-0.19l0.164-0.498c0.114,0.065,0.254,0.118,0.416,0.158
		c0.164,0.04,0.323,0.061,0.482,0.061c0.313,0,0.54-0.071,0.682-0.213c0.143-0.143,0.213-0.359,0.213-0.65V6.043
		c-0.115,0.148-0.252,0.259-0.414,0.334c-0.16,0.075-0.344,0.112-0.554,0.112c-0.432,0-0.772-0.156-1.021-0.469
		c-0.247-0.313-0.37-0.722-0.37-1.228V4.724H47.83z M48.473,4.792c0,0.354,0.074,0.638,0.225,0.854
		c0.15,0.215,0.378,0.322,0.684,0.322c0.193,0,0.355-0.044,0.485-0.132s0.237-0.212,0.321-0.373V3.841
		c-0.082-0.149-0.189-0.269-0.321-0.356c-0.134-0.088-0.292-0.132-0.479-0.132c-0.306,0-0.535,0.128-0.687,0.384
		c-0.152,0.256-0.228,0.585-0.228,0.987V4.792z"/>
	<path d="M52.334,2.897l0.045,0.524c0.117-0.187,0.264-0.332,0.441-0.435c0.177-0.104,0.377-0.155,0.604-0.155
		c0.381,0,0.674,0.111,0.883,0.333c0.209,0.223,0.313,0.566,0.313,1.031V6.42h-0.643V4.209c0-0.311-0.062-0.531-0.184-0.661
		c-0.122-0.13-0.311-0.195-0.563-0.195c-0.185,0-0.348,0.044-0.489,0.133C52.6,3.575,52.484,3.697,52.4,3.851v2.57h-0.642V2.897
		H52.334z"/>
	<path d="M60.219,4.792c0,0.508-0.123,0.918-0.367,1.229s-0.58,0.467-1.008,0.467c-0.232,0-0.434-0.045-0.605-0.135
		s-0.313-0.223-0.426-0.399L57.734,6.42H57.21V1.34h0.644v1.974c0.108-0.156,0.248-0.276,0.412-0.358s0.354-0.124,0.573-0.124
		c0.435,0,0.772,0.174,1.017,0.521s0.365,0.804,0.365,1.371v0.068H60.219z M59.576,4.724c0-0.404-0.074-0.733-0.223-0.988
		c-0.148-0.255-0.375-0.383-0.679-0.383c-0.198,0-0.364,0.048-0.5,0.145c-0.137,0.097-0.243,0.226-0.323,0.389v1.527
		c0.082,0.174,0.188,0.31,0.323,0.407c0.134,0.098,0.302,0.146,0.507,0.146c0.301,0,0.524-0.107,0.674-0.322
		c0.147-0.215,0.221-0.5,0.221-0.854V4.724z"/>
	<path d="M62.043,5.114l0.114,0.443h0.021l0.865-2.661h0.713l-1.48,4.064c-0.09,0.237-0.217,0.443-0.383,0.619
		c-0.166,0.176-0.392,0.264-0.674,0.264c-0.052,0-0.117-0.006-0.197-0.018c-0.082-0.012-0.144-0.023-0.187-0.034l0.063-0.505
		c-0.012-0.002,0.025,0,0.117,0.007c0.09,0.006,0.146,0.01,0.17,0.01c0.137,0,0.248-0.061,0.336-0.183
		c0.086-0.122,0.16-0.256,0.219-0.404l0.152-0.368l-1.31-3.452H61.3L62.043,5.114z"/>
</g>
</svg>
